<svg version="1.1" xmlns="http://www.w3.org/2000/svg" xmlns:xlink="http://www.w3.org/1999/xlink" width="645" height="862"><defs/><g><text fill="#eeeeee" stroke="none" font-family="Arial" font-size="24px" font-style="normal" font-weight="normal" text-decoration="none" x="0" y="0"></text><text fill="#eeeeee" stroke="none" font-family="Arial" font-size="24px" font-style="normal" font-weight="normal" text-decoration="none" x="0" y="30"></text><text fill="#eeeeee" stroke="none" font-family="Arial" font-size="24px" font-style="normal" font-weight="normal" text-decoration="none" x="0" y="60"></text><text fill="#eeeeee" stroke="none" font-family="Arial" font-size="24px" font-style="normal" font-weight="normal" text-decoration="none" x="0" y="90"></text><text fill="#eeeeee" stroke="none" font-family="Arial" font-size="24px" font-style="normal" font-weight="normal" text-decoration="none" x="0" y="120"></text><text fill="#eeeeee" stroke="none" font-family="Arial" font-size="24px" font-style="normal" font-weight="normal" text-decoration="none" x="0" y="150"></text><text fill="#eeeeee" stroke="none" font-family="Arial" font-size="24px" font-style="normal" font-weight="normal" text-decoration="none" x="0" y="180"></text><text fill="#eeeeee" stroke="none" font-family="Arial" font-size="24px" font-style="normal" font-weight="normal" text-decoration="none" x="0" y="210"></text><text fill="#eeeeee" stroke="none" font-family="Arial" font-size="24px" font-style="normal" font-weight="normal" text-decoration="none" x="0" y="240"></text><text fill="#eeeeee" stroke="none" font-family="Arial" font-size="24px" font-style="normal" font-weight="normal" text-decoration="none" x="0" y="270"></text><text fill="#eeeeee" stroke="none" font-family="Arial" font-size="24px" font-style="normal" font-weight="normal" text-decoration="none" x="0" y="300"></text><text fill="#eeeeee" stroke="none" font-family="Arial" font-size="24px" font-style="normal" font-weight="normal" text-decoration="none" x="0" y="330"></text><text fill="#eeeeee" stroke="none" font-family="Arial" font-size="24px" font-style="normal" font-weight="normal" text-decoration="none" x="0" y="360"></text><text fill="#eeeeee" stroke="none" font-family="Arial" font-size="24px" font-style="normal" font-weight="normal" text-decoration="none" x="0" y="390"></text><text fill="#eeeeee" stroke="none" font-family="Arial" font-size="24px" font-style="normal" font-weight="normal" text-decoration="none" x="0" y="420"></text><text fill="#eeeeee" stroke="none" font-family="Arial" font-size="24px" font-style="normal" font-weight="normal" text-decoration="none" x="0" y="450"></text><text fill="#eeeeee" stroke="none" font-family="Arial" font-size="24px" font-style="normal" font-weight="normal" text-decoration="none" x="0" y="480"></text><text fill="#eeeeee" stroke="none" font-family="Arial" font-size="24px" font-style="normal" font-weight="normal" text-decoration="none" x="0" y="510"></text><text fill="#eeeeee" stroke="none" font-family="Arial" font-size="24px" font-style="normal" font-weight="normal" text-decoration="none" x="0" y="540"></text><text fill="#eeeeee" stroke="none" font-family="Arial" font-size="24px" font-style="normal" font-weight="normal" text-decoration="none" x="0" y="570"></text><text fill="#eeeeee" stroke="none" font-family="Arial" font-size="24px" font-style="normal" font-weight="normal" text-decoration="none" x="0" y="600"></text><text fill="#eeeeee" stroke="none" font-family="Arial" font-size="24px" font-style="normal" font-weight="normal" text-decoration="none" x="0" y="630"></text><text fill="#eeeeee" stroke="none" font-family="Arial" font-size="24px" font-style="normal" font-weight="normal" text-decoration="none" x="0" y="660"></text><text fill="#eeeeee" stroke="none" font-family="Arial" font-size="24px" font-style="normal" font-weight="normal" text-decoration="none" x="0" y="690"></text><text fill="#eeeeee" stroke="none" font-family="Arial" font-size="24px" font-style="normal" font-weight="normal" text-decoration="none" x="0" y="720"></text><text fill="#eeeeee" stroke="none" font-family="Arial" font-size="24px" font-style="normal" font-weight="normal" text-decoration="none" x="0" y="750"></text><text fill="#eeeeee" stroke="none" font-family="Arial" font-size="24px" font-style="normal" font-weight="normal" text-decoration="none" x="0" y="780"></text><text fill="#eeeeee" stroke="none" font-family="Arial" font-size="24px" font-style="normal" font-weight="normal" text-decoration="none" x="0" y="810"></text><text fill="#eeeeee" stroke="none" font-family="Arial" font-size="24px" font-style="normal" font-weight="normal" text-decoration="none" x="0" y="840"></text><text fill="#eeeeee" stroke="none" font-family="Arial" font-size="24px" font-style="normal" font-weight="normal" text-decoration="none" x="200" y="0"></text><text fill="#eeeeee" stroke="none" font-family="Arial" font-size="24px" font-style="normal" font-weight="normal" text-decoration="none" x="200" y="30"></text><text fill="#eeeeee" stroke="none" font-family="Arial" font-size="24px" font-style="normal" font-weight="normal" text-decoration="none" x="200" y="60"></text><text fill="#eeeeee" stroke="none" font-family="Arial" font-size="24px" font-style="normal" font-weight="normal" text-decoration="none" x="200" y="90"></text><text fill="#eeeeee" stroke="none" font-family="Arial" font-size="24px" font-style="normal" font-weight="normal" text-decoration="none" x="200" y="120"></text><text fill="#eeeeee" stroke="none" font-family="Arial" font-size="24px" font-style="normal" font-weight="normal" text-decoration="none" x="200" y="150"></text><text fill="#eeeeee" stroke="none" font-family="Arial" font-size="24px" font-style="normal" font-weight="normal" text-decoration="none" x="200" y="180"></text><text fill="#eeeeee" stroke="none" font-family="Arial" font-size="24px" font-style="normal" font-weight="normal" text-decoration="none" x="200" y="210"></text><text fill="#eeeeee" stroke="none" font-family="Arial" font-size="24px" font-style="normal" font-weight="normal" text-decoration="none" x="200" y="240"></text><text fill="#eeeeee" stroke="none" font-family="Arial" font-size="24px" font-style="normal" font-weight="normal" text-decoration="none" x="200" y="270"></text><text fill="#eeeeee" stroke="none" font-family="Arial" font-size="24px" font-style="normal" font-weight="normal" text-decoration="none" x="200" y="300"></text><text fill="#eeeeee" stroke="none" font-family="Arial" font-size="24px" font-style="normal" font-weight="normal" text-decoration="none" x="200" y="330"></text><text fill="#eeeeee" stroke="none" font-family="Arial" font-size="24px" font-style="normal" font-weight="normal" text-decoration="none" x="200" y="360"></text><text fill="#eeeeee" stroke="none" font-family="Arial" font-size="24px" font-style="normal" font-weight="normal" text-decoration="none" x="200" y="390"></text><text fill="#eeeeee" stroke="none" font-family="Arial" font-size="24px" font-style="normal" font-weight="normal" text-decoration="none" x="200" y="420"></text><text fill="#eeeeee" stroke="none" font-family="Arial" font-size="24px" font-style="normal" font-weight="normal" text-decoration="none" x="200" y="450"></text><text fill="#eeeeee" stroke="none" font-family="Arial" font-size="24px" font-style="normal" font-weight="normal" text-decoration="none" x="200" y="480"></text><text fill="#eeeeee" stroke="none" font-family="Arial" font-size="24px" font-style="normal" font-weight="normal" text-decoration="none" x="200" y="510"></text><text fill="#eeeeee" stroke="none" font-family="Arial" font-size="24px" font-style="normal" font-weight="normal" text-decoration="none" x="200" y="540"></text><text fill="#eeeeee" stroke="none" font-family="Arial" font-size="24px" font-style="normal" font-weight="normal" text-decoration="none" x="200" y="570"></text><text fill="#eeeeee" stroke="none" font-family="Arial" font-size="24px" font-style="normal" font-weight="normal" text-decoration="none" x="200" y="600"></text><text fill="#eeeeee" stroke="none" font-family="Arial" font-size="24px" font-style="normal" font-weight="normal" text-decoration="none" x="200" y="630"></text><text fill="#eeeeee" stroke="none" font-family="Arial" font-size="24px" font-style="normal" font-weight="normal" text-decoration="none" x="200" y="660"></text><text fill="#eeeeee" stroke="none" font-family="Arial" font-size="24px" font-style="normal" font-weight="normal" text-decoration="none" x="200" y="690"></text><text fill="#eeeeee" stroke="none" font-family="Arial" font-size="24px" font-style="normal" font-weight="normal" text-decoration="none" x="200" y="720"></text><text fill="#eeeeee" stroke="none" font-family="Arial" font-size="24px" font-style="normal" font-weight="normal" text-decoration="none" x="200" y="750"></text><text fill="#eeeeee" stroke="none" font-family="Arial" font-size="24px" font-style="normal" font-weight="normal" text-decoration="none" x="200" y="780"></text><text fill="#eeeeee" stroke="none" font-family="Arial" font-size="24px" font-style="normal" font-weight="normal" text-decoration="none" x="200" y="810"></text><text fill="#eeeeee" stroke="none" font-family="Arial" font-size="24px" font-style="normal" font-weight="normal" text-decoration="none" x="200" y="840"></text><text fill="#eeeeee" stroke="none" font-family="Arial" font-size="24px" font-style="normal" font-weight="normal" text-decoration="none" x="400" y="0"></text><text fill="#eeeeee" stroke="none" font-family="Arial" font-size="24px" font-style="normal" font-weight="normal" text-decoration="none" x="400" y="30"></text><text fill="#eeeeee" stroke="none" font-family="Arial" font-size="24px" font-style="normal" font-weight="normal" text-decoration="none" x="400" y="60"></text><text fill="#eeeeee" stroke="none" font-family="Arial" font-size="24px" font-style="normal" font-weight="normal" text-decoration="none" x="400" y="90"></text><text fill="#eeeeee" stroke="none" font-family="Arial" font-size="24px" font-style="normal" font-weight="normal" text-decoration="none" x="400" y="120"></text><text fill="#eeeeee" stroke="none" font-family="Arial" font-size="24px" font-style="normal" font-weight="normal" text-decoration="none" x="400" y="150"></text><text fill="#eeeeee" stroke="none" font-family="Arial" font-size="24px" font-style="normal" font-weight="normal" text-decoration="none" x="400" y="180"></text><text fill="#eeeeee" stroke="none" font-family="Arial" font-size="24px" font-style="normal" font-weight="normal" text-decoration="none" x="400" y="210"></text><text fill="#eeeeee" stroke="none" font-family="Arial" font-size="24px" font-style="normal" font-weight="normal" text-decoration="none" x="400" y="240"></text><text fill="#eeeeee" stroke="none" font-family="Arial" font-size="24px" font-style="normal" font-weight="normal" text-decoration="none" x="400" y="270"></text><text fill="#eeeeee" stroke="none" font-family="Arial" font-size="24px" font-style="normal" font-weight="normal" text-decoration="none" x="400" y="300"></text><text fill="#eeeeee" stroke="none" font-family="Arial" font-size="24px" font-style="normal" font-weight="normal" text-decoration="none" x="400" y="330"></text><text fill="#eeeeee" stroke="none" font-family="Arial" font-size="24px" font-style="normal" font-weight="normal" text-decoration="none" x="400" y="360"></text><text fill="#eeeeee" stroke="none" font-family="Arial" font-size="24px" font-style="normal" font-weight="normal" text-decoration="none" x="400" y="390"></text><text fill="#eeeeee" stroke="none" font-family="Arial" font-size="24px" font-style="normal" font-weight="normal" text-decoration="none" x="400" y="420"></text><text fill="#eeeeee" stroke="none" font-family="Arial" font-size="24px" font-style="normal" font-weight="normal" text-decoration="none" x="400" y="450"></text><text fill="#eeeeee" stroke="none" font-family="Arial" font-size="24px" font-style="normal" font-weight="normal" text-decoration="none" x="400" y="480"></text><text fill="#eeeeee" stroke="none" font-family="Arial" font-size="24px" font-style="normal" font-weight="normal" text-decoration="none" x="400" y="510"></text><text fill="#eeeeee" stroke="none" font-family="Arial" font-size="24px" font-style="normal" font-weight="normal" text-decoration="none" x="400" y="540"></text><text fill="#eeeeee" stroke="none" font-family="Arial" font-size="24px" font-style="normal" font-weight="normal" text-decoration="none" x="400" y="570"></text><text fill="#eeeeee" stroke="none" font-family="Arial" font-size="24px" font-style="normal" font-weight="normal" text-decoration="none" x="400" y="600"></text><text fill="#eeeeee" stroke="none" font-family="Arial" font-size="24px" font-style="normal" font-weight="normal" text-decoration="none" x="400" y="630"></text><text fill="#eeeeee" stroke="none" font-family="Arial" font-size="24px" font-style="normal" font-weight="normal" text-decoration="none" x="400" y="660"></text><text fill="#eeeeee" stroke="none" font-family="Arial" font-size="24px" font-style="normal" font-weight="normal" text-decoration="none" x="400" y="690"></text><text fill="#eeeeee" stroke="none" font-family="Arial" font-size="24px" font-style="normal" font-weight="normal" text-decoration="none" x="400" y="720"></text><text fill="#eeeeee" stroke="none" font-family="Arial" font-size="24px" font-style="normal" font-weight="normal" text-decoration="none" x="400" y="750"></text><text fill="#eeeeee" stroke="none" font-family="Arial" font-size="24px" font-style="normal" font-weight="normal" text-decoration="none" x="400" y="780"></text><text fill="#eeeeee" stroke="none" font-family="Arial" font-size="24px" font-style="normal" font-weight="normal" text-decoration="none" x="400" y="810"></text><text fill="#eeeeee" stroke="none" font-family="Arial" font-size="24px" font-style="normal" font-weight="normal" text-decoration="none" x="400" y="840"></text><text fill="#eeeeee" stroke="none" font-family="Arial" font-size="24px" font-style="normal" font-weight="normal" text-decoration="none" x="600" y="0"></text><text fill="#eeeeee" stroke="none" font-family="Arial" font-size="24px" font-style="normal" font-weight="normal" text-decoration="none" x="600" y="30"></text><text fill="#eeeeee" stroke="none" font-family="Arial" font-size="24px" font-style="normal" font-weight="normal" text-decoration="none" x="600" y="60"></text><text fill="#eeeeee" stroke="none" font-family="Arial" font-size="24px" font-style="normal" font-weight="normal" text-decoration="none" x="600" y="90"></text><text fill="#eeeeee" stroke="none" font-family="Arial" font-size="24px" font-style="normal" font-weight="normal" text-decoration="none" x="600" y="120"></text><text fill="#eeeeee" stroke="none" font-family="Arial" font-size="24px" font-style="normal" font-weight="normal" text-decoration="none" x="600" y="150"></text><text fill="#eeeeee" stroke="none" font-family="Arial" font-size="24px" font-style="normal" font-weight="normal" text-decoration="none" x="600" y="180"></text><text fill="#eeeeee" stroke="none" font-family="Arial" font-size="24px" font-style="normal" font-weight="normal" text-decoration="none" x="600" y="210"></text><text fill="#eeeeee" stroke="none" font-family="Arial" font-size="24px" font-style="normal" font-weight="normal" text-decoration="none" x="600" y="240"></text><text fill="#eeeeee" stroke="none" font-family="Arial" font-size="24px" font-style="normal" font-weight="normal" text-decoration="none" x="600" y="270"></text><text fill="#eeeeee" stroke="none" font-family="Arial" font-size="24px" font-style="normal" font-weight="normal" text-decoration="none" x="600" y="300"></text><text fill="#eeeeee" stroke="none" font-family="Arial" font-size="24px" font-style="normal" font-weight="normal" text-decoration="none" x="600" y="330"></text><text fill="#eeeeee" stroke="none" font-family="Arial" font-size="24px" font-style="normal" font-weight="normal" text-decoration="none" x="600" y="360"></text><text fill="#eeeeee" stroke="none" font-family="Arial" font-size="24px" font-style="normal" font-weight="normal" text-decoration="none" x="600" y="390"></text><text fill="#eeeeee" stroke="none" font-family="Arial" font-size="24px" font-style="normal" font-weight="normal" text-decoration="none" x="600" y="420"></text><text fill="#eeeeee" stroke="none" font-family="Arial" font-size="24px" font-style="normal" font-weight="normal" text-decoration="none" x="600" y="450"></text><text fill="#eeeeee" stroke="none" font-family="Arial" font-size="24px" font-style="normal" font-weight="normal" text-decoration="none" x="600" y="480"></text><text fill="#eeeeee" stroke="none" font-family="Arial" font-size="24px" font-style="normal" font-weight="normal" text-decoration="none" x="600" y="510"></text><text fill="#eeeeee" stroke="none" font-family="Arial" font-size="24px" font-style="normal" font-weight="normal" text-decoration="none" x="600" y="540"></text><text fill="#eeeeee" stroke="none" font-family="Arial" font-size="24px" font-style="normal" font-weight="normal" text-decoration="none" x="600" y="570"></text><text fill="#eeeeee" stroke="none" font-family="Arial" font-size="24px" font-style="normal" font-weight="normal" text-decoration="none" x="600" y="600"></text><text fill="#eeeeee" stroke="none" font-family="Arial" font-size="24px" font-style="normal" font-weight="normal" text-decoration="none" x="600" y="630"></text><text fill="#eeeeee" stroke="none" font-family="Arial" font-size="24px" font-style="normal" font-weight="normal" text-decoration="none" x="600" y="660"></text><text fill="#eeeeee" stroke="none" font-family="Arial" font-size="24px" font-style="normal" font-weight="normal" text-decoration="none" x="600" y="690"></text><text fill="#eeeeee" stroke="none" font-family="Arial" font-size="24px" font-style="normal" font-weight="normal" text-decoration="none" x="600" y="720"></text><text fill="#eeeeee" stroke="none" font-family="Arial" font-size="24px" font-style="normal" font-weight="normal" text-decoration="none" x="600" y="750"></text><text fill="#eeeeee" stroke="none" font-family="Arial" font-size="24px" font-style="normal" font-weight="normal" text-decoration="none" x="600" y="780"></text><text fill="#eeeeee" stroke="none" font-family="Arial" font-size="24px" font-style="normal" font-weight="normal" text-decoration="none" x="600" y="810"></text><text fill="#eeeeee" stroke="none" font-family="Arial" font-size="24px" font-style="normal" font-weight="normal" text-decoration="none" x="600" y="840"></text><g transform="translate(-6,-14) scale(1,1)"><path fill="#ffffff" stroke="none" d="M 39.62663547585227 89.68 C 39.62663547585227 84.886167936 43.512477800797726 81 48.305908203125 81 C 53.099338605452274 81 56.98518093039773 84.886167936 56.98518093039773 89.68 C 56.98518093039773 94.473832064 53.099338605452274 98.36 48.305908203125 98.36 C 43.512477800797726 98.36 39.62663547585227 94.473832064 39.62663547585227 89.68 Z"/></g><g transform="translate(-6,-14) scale(1,1)"><path fill="none" stroke="#000000" d="M 39.62663547585227 89.68 C 39.62663547585227 84.886167936 43.512477800797726 81 48.305908203125 81 C 53.099338605452274 81 56.98518093039773 84.886167936 56.98518093039773 89.68 C 56.98518093039773 94.473832064 53.099338605452274 98.36 48.305908203125 98.36 C 43.512477800797726 98.36 39.62663547585227 94.473832064 39.62663547585227 89.68 Z" stroke-miterlimit="10"/></g><g transform="translate(-6,-14) scale(1,1)"><path fill="none" stroke="#000000" d="M 48.305908203125 98.36 L 48.305908203125 115.64" stroke-miterlimit="10"/></g><g transform="translate(-6,-14) scale(1,1)"><path fill="none" stroke="#000000" d="M 39.11609002130682 104.84 L 57.49572638494318 104.84" stroke-miterlimit="10"/></g><g transform="translate(-6,-14) scale(1,1)"><path fill="none" stroke="#000000" d="M 48.305908203125 115.64 L 35.542271839488635 133" stroke-miterlimit="10"/></g><g transform="translate(-6,-14) scale(1,1)"><path fill="none" stroke="#000000" d="M 48.305908203125 115.64 L 61.069544566761365 133" stroke-miterlimit="10"/></g><g transform="translate(-6,-14) scale(1,1)"><g><path fill="none" stroke="none"/><text fill="#000000" stroke="none" font-family="Arial" font-size="13px" font-style="normal" font-weight="bold" text-decoration="none" x="20.5" y="152.5">일반 고객</text></g></g><g transform="translate(-6,-14) scale(1,1)"><path fill="#ffffff" stroke="none" d="M 40.40935031960227 289.68 C 40.40935031960227 284.886167936 44.295192644547726 281 49.088623046875 281 C 53.882053449202274 281 57.76789577414773 284.886167936 57.76789577414773 289.68 C 57.76789577414773 294.473832064 53.882053449202274 298.36 49.088623046875 298.36 C 44.295192644547726 298.36 40.40935031960227 294.473832064 40.40935031960227 289.68 Z"/></g><g transform="translate(-6,-14) scale(1,1)"><path fill="none" stroke="#000000" d="M 40.40935031960227 289.68 C 40.40935031960227 284.886167936 44.295192644547726 281 49.088623046875 281 C 53.882053449202274 281 57.76789577414773 284.886167936 57.76789577414773 289.68 C 57.76789577414773 294.473832064 53.882053449202274 298.36 49.088623046875 298.36 C 44.295192644547726 298.36 40.40935031960227 294.473832064 40.40935031960227 289.68 Z" stroke-miterlimit="10"/></g><g transform="translate(-6,-14) scale(1,1)"><path fill="none" stroke="#000000" d="M 49.088623046875 298.36 L 49.088623046875 315.64" stroke-miterlimit="10"/></g><g transform="translate(-6,-14) scale(1,1)"><path fill="none" stroke="#000000" d="M 39.89880486505682 304.84 L 58.27844122869318 304.84" stroke-miterlimit="10"/></g><g transform="translate(-6,-14) scale(1,1)"><path fill="none" stroke="#000000" d="M 49.088623046875 315.64 L 36.324986683238635 333" stroke-miterlimit="10"/></g><g transform="translate(-6,-14) scale(1,1)"><path fill="none" stroke="#000000" d="M 49.088623046875 315.64 L 61.852259410511365 333" stroke-miterlimit="10"/></g><g transform="translate(-6,-14) scale(1,1)"><g><path fill="none" stroke="none"/><text fill="#000000" stroke="none" font-family="Arial" font-size="13px" font-style="normal" font-weight="bold" text-decoration="none" x="36.088623046875" y="352.5">회원</text></g></g><g transform="translate(-6,-14) scale(1,1)"><path fill="#ffffff" stroke="none" d="M 40.40935031960227 681.6800000000001 C 40.40935031960227 676.8861679360001 44.295192644547726 673 49.088623046875 673 C 53.882053449202274 673 57.76789577414773 676.8861679360001 57.76789577414773 681.6800000000001 C 57.76789577414773 686.473832064 53.882053449202274 690.36 49.088623046875 690.36 C 44.295192644547726 690.36 40.40935031960227 686.473832064 40.40935031960227 681.6800000000001 Z"/></g><g transform="translate(-6,-14) scale(1,1)"><path fill="none" stroke="#000000" d="M 40.40935031960227 681.6800000000001 C 40.40935031960227 676.8861679360001 44.295192644547726 673 49.088623046875 673 C 53.882053449202274 673 57.76789577414773 676.8861679360001 57.76789577414773 681.6800000000001 C 57.76789577414773 686.473832064 53.882053449202274 690.36 49.088623046875 690.36 C 44.295192644547726 690.36 40.40935031960227 686.473832064 40.40935031960227 681.6800000000001 Z" stroke-miterlimit="10"/></g><g transform="translate(-6,-14) scale(1,1)"><path fill="none" stroke="#000000" d="M 49.088623046875 690.36 L 49.088623046875 707.64" stroke-miterlimit="10"/></g><g transform="translate(-6,-14) scale(1,1)"><path fill="none" stroke="#000000" d="M 39.89880486505682 696.84 L 58.27844122869318 696.84" stroke-miterlimit="10"/></g><g transform="translate(-6,-14) scale(1,1)"><path fill="none" stroke="#000000" d="M 49.088623046875 707.64 L 36.324986683238635 725" stroke-miterlimit="10"/></g><g transform="translate(-6,-14) scale(1,1)"><path fill="none" stroke="#000000" d="M 49.088623046875 707.64 L 61.852259410511365 725" stroke-miterlimit="10"/></g><g transform="translate(-6,-14) scale(1,1)"><g><path fill="none" stroke="none"/><text fill="#000000" stroke="none" font-family="Arial" font-size="13px" font-style="normal" font-weight="bold" text-decoration="none" x="29.588623046875" y="744.5">관리자</text></g></g><g transform="translate(-6,-14) scale(1,1)"><path fill="#ffffff" stroke="none" d="M 524.3302487571023 449.68 C 524.3302487571023 444.886167936 528.2160910820477 441 533.009521484375 441 C 537.8029518867023 441 541.6887942116477 444.886167936 541.6887942116477 449.68 C 541.6887942116477 454.473832064 537.8029518867023 458.36 533.009521484375 458.36 C 528.2160910820477 458.36 524.3302487571023 454.473832064 524.3302487571023 449.68 Z"/></g><g transform="translate(-6,-14) scale(1,1)"><path fill="none" stroke="#000000" d="M 524.3302487571023 449.68 C 524.3302487571023 444.886167936 528.2160910820477 441 533.009521484375 441 C 537.8029518867023 441 541.6887942116477 444.886167936 541.6887942116477 449.68 C 541.6887942116477 454.473832064 537.8029518867023 458.36 533.009521484375 458.36 C 528.2160910820477 458.36 524.3302487571023 454.473832064 524.3302487571023 449.68 Z" stroke-miterlimit="10"/></g><g transform="translate(-6,-14) scale(1,1)"><path fill="none" stroke="#000000" d="M 533.009521484375 458.36 L 533.009521484375 475.64" stroke-miterlimit="10"/></g><g transform="translate(-6,-14) scale(1,1)"><path fill="none" stroke="#000000" d="M 523.8197033025568 464.84 L 542.1993396661932 464.84" stroke-miterlimit="10"/></g><g transform="translate(-6,-14) scale(1,1)"><path fill="none" stroke="#000000" d="M 533.009521484375 475.64 L 520.2458851207386 493" stroke-miterlimit="10"/></g><g transform="translate(-6,-14) scale(1,1)"><path fill="none" stroke="#000000" d="M 533.009521484375 475.64 L 545.7731578480114 493" stroke-miterlimit="10"/></g><g transform="translate(-6,-14) scale(1,1)"><g><path fill="none" stroke="none"/><text fill="#000000" stroke="none" font-family="Arial" font-size="13px" font-style="normal" font-weight="bold" text-decoration="none" x="500.5" y="512.5">sms시스템</text></g></g><g transform="translate(-6,-14) scale(1,1)"><path fill="#ffffff" stroke="none" d="M 40.40935031960227 433.68 C 40.40935031960227 428.886167936 44.295192644547726 425 49.088623046875 425 C 53.882053449202274 425 57.76789577414773 428.886167936 57.76789577414773 433.68 C 57.76789577414773 438.473832064 53.882053449202274 442.36 49.088623046875 442.36 C 44.295192644547726 442.36 40.40935031960227 438.473832064 40.40935031960227 433.68 Z"/></g><g transform="translate(-6,-14) scale(1,1)"><path fill="none" stroke="#000000" d="M 40.40935031960227 433.68 C 40.40935031960227 428.886167936 44.295192644547726 425 49.088623046875 425 C 53.882053449202274 425 57.76789577414773 428.886167936 57.76789577414773 433.68 C 57.76789577414773 438.473832064 53.882053449202274 442.36 49.088623046875 442.36 C 44.295192644547726 442.36 40.40935031960227 438.473832064 40.40935031960227 433.68 Z" stroke-miterlimit="10"/></g><g transform="translate(-6,-14) scale(1,1)"><path fill="none" stroke="#000000" d="M 49.088623046875 442.36 L 49.088623046875 459.64" stroke-miterlimit="10"/></g><g transform="translate(-6,-14) scale(1,1)"><path fill="none" stroke="#000000" d="M 39.89880486505682 448.84 L 58.27844122869318 448.84" stroke-miterlimit="10"/></g><g transform="translate(-6,-14) scale(1,1)"><path fill="none" stroke="#000000" d="M 49.088623046875 459.64 L 36.324986683238635 477" stroke-miterlimit="10"/></g><g transform="translate(-6,-14) scale(1,1)"><path fill="none" stroke="#000000" d="M 49.088623046875 459.64 L 61.852259410511365 477" stroke-miterlimit="10"/></g><g transform="translate(-6,-14) scale(1,1)"><g><path fill="none" stroke="none"/><text fill="#000000" stroke="none" font-family="Arial" font-size="13px" font-style="normal" font-weight="bold" text-decoration="none" x="29.588623046875" y="496.5">구매자</text></g></g><g transform="translate(-6,-14) scale(1,1)"><path fill="#C0C0C0" stroke="none" d="M 229 264 C 229 254.6111584 251.6096176 247 279.5 247 C 307.3903824 247 330 254.6111584 330 264 C 330 273.3888416 307.3903824 281 279.5 281 C 251.6096176 281 229 273.3888416 229 264 Z" opacity="0.2"/></g><g transform="translate(-6,-14) scale(1,1)"><path fill="#ffffff" stroke="none" d="M 222 257 C 222 247.6111584 244.6096176 240 272.5 240 C 300.3903824 240 323 247.6111584 323 257 C 323 266.3888416 300.3903824 274 272.5 274 C 244.6096176 274 222 266.3888416 222 257 Z"/></g><g transform="translate(-6,-14) scale(1,1)"><path fill="none" stroke="#000000" d="M 222 257 C 222 247.6111584 244.6096176 240 272.5 240 C 300.3903824 240 323 247.6111584 323 257 C 323 266.3888416 300.3903824 274 272.5 274 C 244.6096176 274 222 266.3888416 222 257 Z" stroke-miterlimit="10"/></g><g transform="translate(-6,-14) scale(1,1)"><g><path fill="none" stroke="none"/><text fill="#000000" stroke="none" font-family="Arial" font-size="13px" font-style="normal" font-weight="bold" text-decoration="none" x="253" y="263">로그인</text></g></g><g transform="translate(-6,-14) scale(1,1)"><path fill="#C0C0C0" stroke="none" d="M 349 48 C 349 38.6111584 371.6096176 31 399.5 31 C 427.3903824 31 450 38.6111584 450 48 C 450 57.3888416 427.3903824 65 399.5 65 C 371.6096176 65 349 57.3888416 349 48 Z" opacity="0.2"/></g><g transform="translate(-6,-14) scale(1,1)"><path fill="#ffffff" stroke="none" d="M 342 41 C 342 31.6111584 364.6096176 24 392.5 24 C 420.3903824 24 443 31.6111584 443 41 C 443 50.3888416 420.3903824 58 392.5 58 C 364.6096176 58 342 50.3888416 342 41 Z"/></g><g transform="translate(-6,-14) scale(1,1)"><path fill="none" stroke="#000000" d="M 342 41 C 342 31.6111584 364.6096176 24 392.5 24 C 420.3903824 24 443 31.6111584 443 41 C 443 50.3888416 420.3903824 58 392.5 58 C 364.6096176 58 342 50.3888416 342 41 Z" stroke-miterlimit="10"/></g><g transform="translate(-6,-14) scale(1,1)"><g><path fill="none" stroke="none"/><text fill="#000000" stroke="none" font-family="Arial" font-size="13px" font-style="normal" font-weight="bold" text-decoration="none" x="366.5" y="47">회원가입</text></g></g><g transform="translate(-6,-14) scale(1,1)"><path fill="#C0C0C0" stroke="none" d="M 261 304 C 261 294.6111584 292.5639216 287 331.5 287 C 370.4360784 287 402 294.6111584 402 304 C 402 313.3888416 370.4360784 321 331.5 321 C 292.5639216 321 261 313.3888416 261 304 Z" opacity="0.2"/></g><g transform="translate(-6,-14) scale(1,1)"><path fill="#ffffff" stroke="none" d="M 254 297 C 254 287.6111584 285.5639216 280 324.5 280 C 363.4360784 280 395 287.6111584 395 297 C 395 306.3888416 363.4360784 314 324.5 314 C 285.5639216 314 254 306.3888416 254 297 Z"/></g><g transform="translate(-6,-14) scale(1,1)"><path fill="none" stroke="#000000" d="M 254 297 C 254 287.6111584 285.5639216 280 324.5 280 C 363.4360784 280 395 287.6111584 395 297 C 395 306.3888416 363.4360784 314 324.5 314 C 285.5639216 314 254 306.3888416 254 297 Z" stroke-miterlimit="10"/></g><g transform="translate(-6,-14) scale(1,1)"><g><path fill="none" stroke="none"/><text fill="#000000" stroke="none" font-family="Arial" font-size="13px" font-style="normal" font-weight="bold" text-decoration="none" x="279" y="303">마이페이지조회</text></g></g><g transform="translate(-6,-14) scale(1,1)"><path fill="#C0C0C0" stroke="none" d="M 493 216 C 493 206.6111584 510.2370352 199 531.5 199 C 552.7629648 199 570 206.6111584 570 216 C 570 225.3888416 552.7629648 233 531.5 233 C 510.2370352 233 493 225.3888416 493 216 Z" opacity="0.2"/></g><g transform="translate(-6,-14) scale(1,1)"><path fill="#ffffff" stroke="none" d="M 486 209 C 486 199.6111584 503.2370352 192 524.5 192 C 545.7629648 192 563 199.6111584 563 209 C 563 218.3888416 545.7629648 226 524.5 226 C 503.2370352 226 486 218.3888416 486 209 Z"/></g><g transform="translate(-6,-14) scale(1,1)"><path fill="none" stroke="#000000" d="M 486 209 C 486 199.6111584 503.2370352 192 524.5 192 C 545.7629648 192 563 199.6111584 563 209 C 563 218.3888416 545.7629648 226 524.5 226 C 503.2370352 226 486 218.3888416 486 209 Z" stroke-miterlimit="10"/></g><g transform="translate(-6,-14) scale(1,1)"><g><path fill="none" stroke="none"/><text fill="#000000" stroke="none" font-family="Arial" font-size="13px" font-style="normal" font-weight="bold" text-decoration="none" x="511.5" y="215">수정</text></g></g><g transform="translate(-6,-14) scale(1,1)"><path fill="#C0C0C0" stroke="none" d="M 525 288 C 525 278.6111584 542.2370352 271 563.5 271 C 584.7629648 271 602 278.6111584 602 288 C 602 297.3888416 584.7629648 305 563.5 305 C 542.2370352 305 525 297.3888416 525 288 Z" opacity="0.2"/></g><g transform="translate(-6,-14) scale(1,1)"><path fill="#ffffff" stroke="none" d="M 518 281 C 518 271.6111584 535.2370352 264 556.5 264 C 577.7629648 264 595 271.6111584 595 281 C 595 290.3888416 577.7629648 298 556.5 298 C 535.2370352 298 518 290.3888416 518 281 Z"/></g><g transform="translate(-6,-14) scale(1,1)"><path fill="none" stroke="#000000" d="M 518 281 C 518 271.6111584 535.2370352 264 556.5 264 C 577.7629648 264 595 271.6111584 595 281 C 595 290.3888416 577.7629648 298 556.5 298 C 535.2370352 298 518 290.3888416 518 281 Z" stroke-miterlimit="10"/></g><g transform="translate(-6,-14) scale(1,1)"><g><path fill="none" stroke="none"/><text fill="#000000" stroke="none" font-family="Arial" font-size="13px" font-style="normal" font-weight="bold" text-decoration="none" x="543.5" y="287">탈퇴</text></g></g><g transform="translate(-6,-14) scale(1,1)"><path fill="#C0C0C0" stroke="none" d="M 191 640 C 191 630.6111584 219.6537728 623 255 623 C 290.3462272 623 319 630.6111584 319 640 C 319 649.3888416 290.3462272 657 255 657 C 219.6537728 657 191 649.3888416 191 640 Z" opacity="0.2"/></g><g transform="translate(-6,-14) scale(1,1)"><path fill="#ffffff" stroke="none" d="M 184 633 C 184 623.6111584 212.6537728 616 248 616 C 283.3462272 616 312 623.6111584 312 633 C 312 642.3888416 283.3462272 650 248 650 C 212.6537728 650 184 642.3888416 184 633 Z"/></g><g transform="translate(-6,-14) scale(1,1)"><path fill="none" stroke="#000000" d="M 184 633 C 184 623.6111584 212.6537728 616 248 616 C 283.3462272 616 312 623.6111584 312 633 C 312 642.3888416 283.3462272 650 248 650 C 212.6537728 650 184 642.3888416 184 633 Z" stroke-miterlimit="10"/></g><g transform="translate(-6,-14) scale(1,1)"><g><path fill="none" stroke="none"/><text fill="#000000" stroke="none" font-family="Arial" font-size="13px" font-style="normal" font-weight="bold" text-decoration="none" x="207.194091796875" y="639">회원정보 조회</text></g></g><g transform="translate(-6,-14) scale(1,1)"><path fill="#C0C0C0" stroke="none" d="M 207 688 C 207 678.6111584 229.6096176 671 257.5 671 C 285.3903824 671 308 678.6111584 308 688 C 308 697.3888416 285.3903824 705 257.5 705 C 229.6096176 705 207 697.3888416 207 688 Z" opacity="0.2"/></g><g transform="translate(-6,-14) scale(1,1)"><path fill="#ffffff" stroke="none" d="M 200 681 C 200 671.6111584 222.6096176 664 250.5 664 C 278.3903824 664 301 671.6111584 301 681 C 301 690.3888416 278.3903824 698 250.5 698 C 222.6096176 698 200 690.3888416 200 681 Z"/></g><g transform="translate(-6,-14) scale(1,1)"><path fill="none" stroke="#000000" d="M 200 681 C 200 671.6111584 222.6096176 664 250.5 664 C 278.3903824 664 301 671.6111584 301 681 C 301 690.3888416 278.3903824 698 250.5 698 C 222.6096176 698 200 690.3888416 200 681 Z" stroke-miterlimit="10"/></g><g transform="translate(-6,-14) scale(1,1)"><g><path fill="none" stroke="none"/><text fill="#000000" stroke="none" font-family="Arial" font-size="13px" font-style="normal" font-weight="bold" text-decoration="none" x="224.5" y="687">회원탈퇴</text></g></g><g transform="translate(-6,-14) scale(1,1)"><path fill="#C0C0C0" stroke="none" d="M 223 752 C 223 742.6111584 245.6096176 735 273.5 735 C 301.3903824 735 324 742.6111584 324 752 C 324 761.3888416 301.3903824 769 273.5 769 C 245.6096176 769 223 761.3888416 223 752 Z" opacity="0.2"/></g><g transform="translate(-6,-14) scale(1,1)"><path fill="#ffffff" stroke="none" d="M 216 745 C 216 735.6111584 238.6096176 728 266.5 728 C 294.3903824 728 317 735.6111584 317 745 C 317 754.3888416 294.3903824 762 266.5 762 C 238.6096176 762 216 754.3888416 216 745 Z"/></g><g transform="translate(-6,-14) scale(1,1)"><path fill="none" stroke="#000000" d="M 216 745 C 216 735.6111584 238.6096176 728 266.5 728 C 294.3903824 728 317 735.6111584 317 745 C 317 754.3888416 294.3903824 762 266.5 762 C 238.6096176 762 216 754.3888416 216 745 Z" stroke-miterlimit="10"/></g><g transform="translate(-6,-14) scale(1,1)"><g><path fill="none" stroke="none"/><text fill="#000000" stroke="none" font-family="Arial" font-size="13px" font-style="normal" font-weight="bold" text-decoration="none" x="240.5" y="751">회원수정</text></g></g><g transform="translate(-6,-14) scale(1,1)"><path fill="#C0C0C0" stroke="none" d="M 383 536 C 383 526.6111584 398.4461744 519 417.5 519 C 436.5538256 519 452 526.6111584 452 536 C 452 545.3888416 436.5538256 553 417.5 553 C 398.4461744 553 383 545.3888416 383 536 Z" opacity="0.2"/></g><g transform="translate(-6,-14) scale(1,1)"><path fill="#ffffff" stroke="none" d="M 376 529 C 376 519.6111584 391.4461744 512 410.5 512 C 429.5538256 512 445 519.6111584 445 529 C 445 538.3888416 429.5538256 546 410.5 546 C 391.4461744 546 376 538.3888416 376 529 Z"/></g><g transform="translate(-6,-14) scale(1,1)"><path fill="none" stroke="#000000" d="M 376 529 C 376 519.6111584 391.4461744 512 410.5 512 C 429.5538256 512 445 519.6111584 445 529 C 445 538.3888416 429.5538256 546 410.5 546 C 391.4461744 546 376 538.3888416 376 529 Z" stroke-miterlimit="10"/></g><g transform="translate(-6,-14) scale(1,1)"><g><path fill="none" stroke="none"/><text fill="#000000" stroke="none" font-family="Arial" font-size="13px" font-style="normal" font-weight="bold" text-decoration="none" x="397.5" y="535">등록</text></g></g><g transform="translate(-6,-14) scale(1,1)"><path fill="#C0C0C0" stroke="none" d="M 407 648 C 407 638.6111584 422.4461744 631 441.5 631 C 460.5538256 631 476 638.6111584 476 648 C 476 657.3888416 460.5538256 665 441.5 665 C 422.4461744 665 407 657.3888416 407 648 Z" opacity="0.2"/></g><g transform="translate(-6,-14) scale(1,1)"><path fill="#ffffff" stroke="none" d="M 400 641 C 400 631.6111584 415.4461744 624 434.5 624 C 453.5538256 624 469 631.6111584 469 641 C 469 650.3888416 453.5538256 658 434.5 658 C 415.4461744 658 400 650.3888416 400 641 Z"/></g><g transform="translate(-6,-14) scale(1,1)"><path fill="none" stroke="#000000" d="M 400 641 C 400 631.6111584 415.4461744 624 434.5 624 C 453.5538256 624 469 631.6111584 469 641 C 469 650.3888416 453.5538256 658 434.5 658 C 415.4461744 658 400 650.3888416 400 641 Z" stroke-miterlimit="10"/></g><g transform="translate(-6,-14) scale(1,1)"><g><path fill="none" stroke="none"/><text fill="#000000" stroke="none" font-family="Arial" font-size="13px" font-style="normal" font-weight="bold" text-decoration="none" x="421.5" y="647">수정</text></g></g><g transform="translate(-6,-14) scale(1,1)"><path fill="#C0C0C0" stroke="none" d="M 399 592 C 399 582.6111584 414.4461744 575 433.5 575 C 452.5538256 575 468 582.6111584 468 592 C 468 601.3888416 452.5538256 609 433.5 609 C 414.4461744 609 399 601.3888416 399 592 Z" opacity="0.2"/></g><g transform="translate(-6,-14) scale(1,1)"><path fill="#ffffff" stroke="none" d="M 392 585 C 392 575.6111584 407.4461744 568 426.5 568 C 445.5538256 568 461 575.6111584 461 585 C 461 594.3888416 445.5538256 602 426.5 602 C 407.4461744 602 392 594.3888416 392 585 Z"/></g><g transform="translate(-6,-14) scale(1,1)"><path fill="none" stroke="#000000" d="M 392 585 C 392 575.6111584 407.4461744 568 426.5 568 C 445.5538256 568 461 575.6111584 461 585 C 461 594.3888416 445.5538256 602 426.5 602 C 407.4461744 602 392 594.3888416 392 585 Z" stroke-miterlimit="10"/></g><g transform="translate(-6,-14) scale(1,1)"><g><path fill="none" stroke="none"/><text fill="#000000" stroke="none" font-family="Arial" font-size="13px" font-style="normal" font-weight="bold" text-decoration="none" x="413.5" y="591">삭제</text></g></g><g transform="translate(-6,-14) scale(1,1)"><path fill="#C0C0C0" stroke="none" d="M 103 856 C 103 846.6111584 139.936504 839 185.5 839 C 231.063496 839 268 846.6111584 268 856 C 268 865.3888416 231.063496 873 185.5 873 C 139.936504 873 103 865.3888416 103 856 Z" opacity="0.2"/></g><g transform="translate(-6,-14) scale(1,1)"><path fill="#ffffff" stroke="none" d="M 96 849 C 96 839.6111584 132.936504 832 178.5 832 C 224.063496 832 261 839.6111584 261 849 C 261 858.3888416 224.063496 866 178.5 866 C 132.936504 866 96 858.3888416 96 849 Z"/></g><g transform="translate(-6,-14) scale(1,1)"><path fill="none" stroke="#000000" d="M 96 849 C 96 839.6111584 132.936504 832 178.5 832 C 224.063496 832 261 839.6111584 261 849 C 261 858.3888416 224.063496 866 178.5 866 C 132.936504 866 96 858.3888416 96 849 Z" stroke-miterlimit="10"/></g><g transform="translate(-6,-14) scale(1,1)"><g><path fill="none" stroke="none"/><text fill="#000000" stroke="none" font-family="Arial" font-size="13px" font-style="normal" font-weight="bold" text-decoration="none" x="124.694091796875" y="855">통계조회 방문자수</text></g></g><g transform="translate(-6,-14) scale(1,1)"><path fill="#C0C0C0" stroke="none" d="M 167 800 C 167 790.6111584 209.08522879999998 783 261 783 C 312.9147712 783 355 790.6111584 355 800 C 355 809.3888416 312.9147712 817 261 817 C 209.08522879999998 817 167 809.3888416 167 800 Z" opacity="0.2"/></g><g transform="translate(-6,-14) scale(1,1)"><path fill="#ffffff" stroke="none" d="M 160 793 C 160 783.6111584 202.08522879999998 776 254 776 C 305.9147712 776 348 783.6111584 348 793 C 348 802.3888416 305.9147712 810 254 810 C 202.08522879999998 810 160 802.3888416 160 793 Z"/></g><g transform="translate(-6,-14) scale(1,1)"><path fill="none" stroke="#000000" d="M 160 793 C 160 783.6111584 202.08522879999998 776 254 776 C 305.9147712 776 348 783.6111584 348 793 C 348 802.3888416 305.9147712 810 254 810 C 202.08522879999998 810 160 802.3888416 160 793 Z" stroke-miterlimit="10"/></g><g transform="translate(-6,-14) scale(1,1)"><g><path fill="none" stroke="none"/><text fill="#000000" stroke="none" font-family="Arial" font-size="13px" font-style="normal" font-weight="bold" text-decoration="none" x="191.88818359375" y="799">통계조회 상품별 판매</text></g></g><g transform="translate(-6,-14) scale(1,1)"><path fill="#C0C0C0" stroke="none" d="M 285 360 C 285 350.6111584 312.5344848 343 346.5 343 C 380.4655152 343 408 350.6111584 408 360 C 408 369.3888416 380.4655152 377 346.5 377 C 312.5344848 377 285 369.3888416 285 360 Z" opacity="0.2"/></g><g transform="translate(-6,-14) scale(1,1)"><path fill="#ffffff" stroke="none" d="M 278 353 C 278 343.6111584 305.5344848 336 339.5 336 C 373.4655152 336 401 343.6111584 401 353 C 401 362.3888416 373.4655152 370 339.5 370 C 305.5344848 370 278 362.3888416 278 353 Z"/></g><g transform="translate(-6,-14) scale(1,1)"><path fill="none" stroke="#000000" d="M 278 353 C 278 343.6111584 305.5344848 336 339.5 336 C 373.4655152 336 401 343.6111584 401 353 C 401 362.3888416 373.4655152 370 339.5 370 C 305.5344848 370 278 362.3888416 278 353 Z" stroke-miterlimit="10"/></g><g transform="translate(-6,-14) scale(1,1)"><g><path fill="none" stroke="none"/><text fill="#000000" stroke="none" font-family="Arial" font-size="13px" font-style="normal" font-weight="bold" text-decoration="none" x="300.5" y="359">상품목록조회</text></g></g><g transform="translate(-6,-14) scale(1,1)"><path fill="#C0C0C0" stroke="none" d="M 541 336 C 541 326.6111584 563.6096176 319 591.5 319 C 619.3903824 319 642 326.6111584 642 336 C 642 345.3888416 619.3903824 353 591.5 353 C 563.6096176 353 541 345.3888416 541 336 Z" opacity="0.2"/></g><g transform="translate(-6,-14) scale(1,1)"><path fill="#ffffff" stroke="none" d="M 534 329 C 534 319.6111584 556.6096176 312 584.5 312 C 612.3903824 312 635 319.6111584 635 329 C 635 338.3888416 612.3903824 346 584.5 346 C 556.6096176 346 534 338.3888416 534 329 Z"/></g><g transform="translate(-6,-14) scale(1,1)"><path fill="none" stroke="#000000" d="M 534 329 C 534 319.6111584 556.6096176 312 584.5 312 C 612.3903824 312 635 319.6111584 635 329 C 635 338.3888416 612.3903824 346 584.5 346 C 556.6096176 346 534 338.3888416 534 329 Z" stroke-miterlimit="10"/></g><g transform="translate(-6,-14) scale(1,1)"><g><path fill="none" stroke="none"/><text fill="#000000" stroke="none" font-family="Arial" font-size="13px" font-style="normal" font-weight="bold" text-decoration="none" x="558.5" y="335">상품검색</text></g></g><g transform="translate(-6,-14) scale(1,1)"><path fill="#C0C0C0" stroke="none" d="M 525 384 C 525 374.6111584 552.5344848 367 586.5 367 C 620.4655152 367 648 374.6111584 648 384 C 648 393.3888416 620.4655152 401 586.5 401 C 552.5344848 401 525 393.3888416 525 384 Z" opacity="0.2"/></g><g transform="translate(-6,-14) scale(1,1)"><path fill="#ffffff" stroke="none" d="M 518 377 C 518 367.6111584 545.5344848 360 579.5 360 C 613.4655152 360 641 367.6111584 641 377 C 641 386.3888416 613.4655152 394 579.5 394 C 545.5344848 394 518 386.3888416 518 377 Z"/></g><g transform="translate(-6,-14) scale(1,1)"><path fill="none" stroke="#000000" d="M 518 377 C 518 367.6111584 545.5344848 360 579.5 360 C 613.4655152 360 641 367.6111584 641 377 C 641 386.3888416 613.4655152 394 579.5 394 C 545.5344848 394 518 386.3888416 518 377 Z" stroke-miterlimit="10"/></g><g transform="translate(-6,-14) scale(1,1)"><g><path fill="none" stroke="none"/><text fill="#000000" stroke="none" font-family="Arial" font-size="13px" font-style="normal" font-weight="bold" text-decoration="none" x="540.5" y="383">상품상세조회</text></g></g><g transform="translate(-6,-14) scale(1,1)"><path fill="#C0C0C0" stroke="none" d="M 333 416 C 333 406.6111584 355.6096176 399 383.5 399 C 411.3903824 399 434 406.6111584 434 416 C 434 425.3888416 411.3903824 433 383.5 433 C 355.6096176 433 333 425.3888416 333 416 Z" opacity="0.2"/></g><g transform="translate(-6,-14) scale(1,1)"><path fill="#ffffff" stroke="none" d="M 326 409 C 326 399.6111584 348.6096176 392 376.5 392 C 404.3903824 392 427 399.6111584 427 409 C 427 418.3888416 404.3903824 426 376.5 426 C 348.6096176 426 326 418.3888416 326 409 Z"/></g><g transform="translate(-6,-14) scale(1,1)"><path fill="none" stroke="#000000" d="M 326 409 C 326 399.6111584 348.6096176 392 376.5 392 C 404.3903824 392 427 399.6111584 427 409 C 427 418.3888416 404.3903824 426 376.5 426 C 348.6096176 426 326 418.3888416 326 409 Z" stroke-miterlimit="10"/></g><g transform="translate(-6,-14) scale(1,1)"><g><path fill="none" stroke="none"/><text fill="#000000" stroke="none" font-family="Arial" font-size="13px" font-style="normal" font-weight="bold" text-decoration="none" x="350.5" y="415">상품구매</text></g></g><g transform="translate(-6,-14) scale(1,1)"><path fill="#C0C0C0" stroke="none" d="M 317 472 C 317 462.6111584 339.6096176 455 367.5 455 C 395.3903824 455 418 462.6111584 418 472 C 418 481.3888416 395.3903824 489 367.5 489 C 339.6096176 489 317 481.3888416 317 472 Z" opacity="0.2"/></g><g transform="translate(-6,-14) scale(1,1)"><path fill="#ffffff" stroke="none" d="M 310 465 C 310 455.6111584 332.6096176 448 360.5 448 C 388.3903824 448 411 455.6111584 411 465 C 411 474.3888416 388.3903824 482 360.5 482 C 332.6096176 482 310 474.3888416 310 465 Z"/></g><g transform="translate(-6,-14) scale(1,1)"><path fill="none" stroke="#000000" d="M 310 465 C 310 455.6111584 332.6096176 448 360.5 448 C 388.3903824 448 411 455.6111584 411 465 C 411 474.3888416 388.3903824 482 360.5 482 C 332.6096176 482 310 474.3888416 310 465 Z" stroke-miterlimit="10"/></g><g transform="translate(-6,-14) scale(1,1)"><g><path fill="none" stroke="none"/><text fill="#000000" stroke="none" font-family="Arial" font-size="13px" font-style="normal" font-weight="bold" text-decoration="none" x="347.5" y="471">결제</text></g></g><g transform="translate(-6,-14) scale(1,1)"><path fill="#C0C0C0" stroke="none" d="M 487 616 C 487 606.6111584 509.6096176 599 537.5 599 C 565.3903824 599 588 606.6111584 588 616 C 588 625.3888416 565.3903824 633 537.5 633 C 509.6096176 633 487 625.3888416 487 616 Z" opacity="0.2"/></g><g transform="translate(-6,-14) scale(1,1)"><path fill="#ffffff" stroke="none" d="M 480 609 C 480 599.6111584 502.6096176 592 530.5 592 C 558.3903824 592 581 599.6111584 581 609 C 581 618.3888416 558.3903824 626 530.5 626 C 502.6096176 626 480 618.3888416 480 609 Z"/></g><g transform="translate(-6,-14) scale(1,1)"><path fill="none" stroke="#000000" d="M 480 609 C 480 599.6111584 502.6096176 592 530.5 592 C 558.3903824 592 581 599.6111584 581 609 C 581 618.3888416 558.3903824 626 530.5 626 C 502.6096176 626 480 618.3888416 480 609 Z" stroke-miterlimit="10"/></g><g transform="translate(-6,-14) scale(1,1)"><g><path fill="none" stroke="none"/><text fill="#000000" stroke="none" font-family="Arial" font-size="13px" font-style="normal" font-weight="bold" text-decoration="none" x="504.5" y="615">문자전송</text></g></g><g transform="translate(-6,-14) scale(1,1)"><path fill="#C0C0C0" stroke="none" d="M 263 144 C 263 134.6111584 285.6096176 127 313.5 127 C 341.3903824 127 364 134.6111584 364 144 C 364 153.3888416 341.3903824 161 313.5 161 C 285.6096176 161 263 153.3888416 263 144 Z" opacity="0.2"/></g><g transform="translate(-6,-14) scale(1,1)"><path fill="#ffffff" stroke="none" d="M 256 137 C 256 127.6111584 278.6096176 120 306.5 120 C 334.3903824 120 357 127.6111584 357 137 C 357 146.3888416 334.3903824 154 306.5 154 C 278.6096176 154 256 146.3888416 256 137 Z"/></g><g transform="translate(-6,-14) scale(1,1)"><path fill="none" stroke="#000000" d="M 256 137 C 256 127.6111584 278.6096176 120 306.5 120 C 334.3903824 120 357 127.6111584 357 137 C 357 146.3888416 334.3903824 154 306.5 154 C 278.6096176 154 256 146.3888416 256 137 Z" stroke-miterlimit="10"/></g><g transform="translate(-6,-14) scale(1,1)"><g><path fill="none" stroke="none"/><text fill="#000000" stroke="none" font-family="Arial" font-size="13px" font-style="normal" font-weight="bold" text-decoration="none" x="280.5" y="143">리뷰조회</text></g></g><g transform="translate(-6,-14) scale(1,1)"><path fill="#C0C0C0" stroke="none" d="M 423 136 C 423 126.6111584 445.6096176 119 473.5 119 C 501.3903824 119 524 126.6111584 524 136 C 524 145.3888416 501.3903824 153 473.5 153 C 445.6096176 153 423 145.3888416 423 136 Z" opacity="0.2"/></g><g transform="translate(-6,-14) scale(1,1)"><path fill="#ffffff" stroke="none" d="M 416 129 C 416 119.6111584 438.6096176 112 466.5 112 C 494.3903824 112 517 119.6111584 517 129 C 517 138.3888416 494.3903824 146 466.5 146 C 438.6096176 146 416 138.3888416 416 129 Z"/></g><g transform="translate(-6,-14) scale(1,1)"><path fill="none" stroke="#000000" d="M 416 129 C 416 119.6111584 438.6096176 112 466.5 112 C 494.3903824 112 517 119.6111584 517 129 C 517 138.3888416 494.3903824 146 466.5 146 C 438.6096176 146 416 138.3888416 416 129 Z" stroke-miterlimit="10"/></g><g transform="translate(-6,-14) scale(1,1)"><g><path fill="none" stroke="none"/><text fill="#000000" stroke="none" font-family="Arial" font-size="13px" font-style="normal" font-weight="bold" text-decoration="none" x="440.5" y="135">리뷰검색</text></g></g><g transform="translate(-6,-14) scale(1,1)"><path fill="#C0C0C0" stroke="none" d="M 135 472 C 135 462.6111584 157.6096176 455 185.5 455 C 213.3903824 455 236 462.6111584 236 472 C 236 481.3888416 213.3903824 489 185.5 489 C 157.6096176 489 135 481.3888416 135 472 Z" opacity="0.2"/></g><g transform="translate(-6,-14) scale(1,1)"><path fill="#ffffff" stroke="none" d="M 128 465 C 128 455.6111584 150.6096176 448 178.5 448 C 206.3903824 448 229 455.6111584 229 465 C 229 474.3888416 206.3903824 482 178.5 482 C 150.6096176 482 128 474.3888416 128 465 Z"/></g><g transform="translate(-6,-14) scale(1,1)"><path fill="none" stroke="#000000" d="M 128 465 C 128 455.6111584 150.6096176 448 178.5 448 C 206.3903824 448 229 455.6111584 229 465 C 229 474.3888416 206.3903824 482 178.5 482 C 150.6096176 482 128 474.3888416 128 465 Z" stroke-miterlimit="10"/></g><g transform="translate(-6,-14) scale(1,1)"><g><path fill="none" stroke="none"/><text fill="#000000" stroke="none" font-family="Arial" font-size="13px" font-style="normal" font-weight="bold" text-decoration="none" x="152.5" y="471">리뷰등록</text></g></g><g transform="translate(-6,-14) scale(1,1)"><path fill="#C0C0C0" stroke="none" d="M 39 568 C 39 558.6111584 61.6096176 551 89.5 551 C 117.3903824 551 140 558.6111584 140 568 C 140 577.3888416 117.3903824 585 89.5 585 C 61.6096176 585 39 577.3888416 39 568 Z" opacity="0.2"/></g><g transform="translate(-6,-14) scale(1,1)"><path fill="#ffffff" stroke="none" d="M 32 561 C 32 551.6111584 54.6096176 544 82.5 544 C 110.3903824 544 133 551.6111584 133 561 C 133 570.3888416 110.3903824 578 82.5 578 C 54.6096176 578 32 570.3888416 32 561 Z"/></g><g transform="translate(-6,-14) scale(1,1)"><path fill="none" stroke="#000000" d="M 32 561 C 32 551.6111584 54.6096176 544 82.5 544 C 110.3903824 544 133 551.6111584 133 561 C 133 570.3888416 110.3903824 578 82.5 578 C 54.6096176 578 32 570.3888416 32 561 Z" stroke-miterlimit="10"/></g><g transform="translate(-6,-14) scale(1,1)"><g><path fill="none" stroke="none"/><text fill="#000000" stroke="none" font-family="Arial" font-size="13px" font-style="normal" font-weight="bold" text-decoration="none" x="56.5" y="567">사진등록</text></g></g><g transform="translate(-6,-14) scale(1,1)"><path fill="none" stroke="#000000" d="M 365 279 L 485 226" stroke-miterlimit="10" stroke-dasharray="3"/></g><g transform="translate(-6,-14) scale(1,1)"><path fill="none" stroke="#000000" d="M 477.4043820613706 233.95654373018655 L 485 226 L 474.00296102187076 226.2552130747152" stroke-miterlimit="10"/></g><g transform="translate(-6,-14) scale(1,1)"><g><path fill="none" stroke="none"/><text fill="#000000" stroke="none" font-family="Arial" font-size="13px" font-style="normal" font-weight="normal" text-decoration="none" x="386.5" y="229">«extend»</text></g></g><g transform="translate(-6,-14) scale(1,1)"><path fill="none" stroke="#000000" d="M 396 292 L 517 284" stroke-miterlimit="10" stroke-dasharray="3"/></g><g transform="translate(-6,-14) scale(1,1)"><path fill="none" stroke="#000000" d="M 507.1371734780374 288.87079593061253 L 517 284 L 506.58175565234177 280.4701013169657" stroke-miterlimit="10"/></g><g transform="translate(-6,-14) scale(1,1)"><g><path fill="none" stroke="none"/><text fill="#000000" stroke="none" font-family="Arial" font-size="13px" font-style="normal" font-weight="normal" text-decoration="none" x="427.5" y="263">«extend»</text></g></g><g transform="translate(-6,-14) scale(1,1)"><path fill="#C0C0C0" stroke="none" d="M 223 576 C 223 566.6111584 245.6096176 559 273.5 559 C 301.3903824 559 324 566.6111584 324 576 C 324 585.3888416 301.3903824 593 273.5 593 C 245.6096176 593 223 585.3888416 223 576 Z" opacity="0.2"/></g><g transform="translate(-6,-14) scale(1,1)"><path fill="#ffffff" stroke="none" d="M 216 569 C 216 559.6111584 238.6096176 552 266.5 552 C 294.3903824 552 317 559.6111584 317 569 C 317 578.3888416 294.3903824 586 266.5 586 C 238.6096176 586 216 578.3888416 216 569 Z"/></g><g transform="translate(-6,-14) scale(1,1)"><path fill="none" stroke="#000000" d="M 216 569 C 216 559.6111584 238.6096176 552 266.5 552 C 294.3903824 552 317 559.6111584 317 569 C 317 578.3888416 294.3903824 586 266.5 586 C 238.6096176 586 216 578.3888416 216 569 Z" stroke-miterlimit="10"/></g><g transform="translate(-6,-14) scale(1,1)"><g><path fill="none" stroke="none"/><text fill="#000000" stroke="none" font-family="Arial" font-size="13px" font-style="normal" font-weight="bold" text-decoration="none" x="240.5" y="575">상품관리</text></g></g><g transform="translate(-6,-14) scale(1,1)"><path fill="none" stroke="#000000" d="M 318 555 L 375 539" stroke-miterlimit="10" stroke-dasharray="3"/></g><g transform="translate(-6,-14) scale(1,1)"><path fill="none" stroke="#000000" d="M 366.35314371036566 545.7994026433512 L 375 539 L 364.07784556452265 537.6936529987854" stroke-miterlimit="10"/></g><g transform="translate(-6,-14) scale(1,1)"><g><path fill="none" stroke="none"/><text fill="#000000" stroke="none" font-family="Arial" font-size="13px" font-style="normal" font-weight="normal" text-decoration="none" x="311.5" y="523">«extend»</text></g></g><g transform="translate(-6,-14) scale(1,1)"><path fill="none" stroke="#000000" d="M 318 574 L 391 582" stroke-miterlimit="10" stroke-dasharray="3"/></g><g transform="translate(-6,-14) scale(1,1)"><path fill="none" stroke="#000000" d="M 380.4392349755457 585.0773758461168 L 391 582 L 381.35637810764183 576.7084447657395" stroke-miterlimit="10"/></g><g transform="translate(-6,-14) scale(1,1)"><g><path fill="none" stroke="none"/><text fill="#000000" stroke="none" font-family="Arial" font-size="13px" font-style="normal" font-weight="normal" text-decoration="none" x="330.5" y="553">«extend»</text></g></g><g transform="translate(-6,-14) scale(1,1)"><path fill="none" stroke="#000000" d="M 308 587 L 399 626" stroke-miterlimit="10" stroke-dasharray="3"/></g><g transform="translate(-6,-14) scale(1,1)"><path fill="none" stroke="#000000" d="M 388.00081763111893 625.8658835726114 L 399 626 L 391.31723819473166 618.1275689241817" stroke-miterlimit="10"/></g><g transform="translate(-6,-14) scale(1,1)"><g><path fill="none" stroke="none"/><text fill="#000000" stroke="none" font-family="Arial" font-size="13px" font-style="normal" font-weight="normal" text-decoration="none" x="337.5" y="583">«extend»</text></g></g><g transform="translate(-6,-14) scale(1,1)"><path fill="none" stroke="#000000" d="M 82 111 L 341 53" stroke-miterlimit="10"/></g><g transform="translate(-6,-14) scale(1,1)"><path fill="none" stroke="#000000" d="M 332.002833939688 59.3285861677921 L 341 53 L 330.16305667272275 51.1130290618611" stroke-miterlimit="10"/></g><g transform="translate(-6,-14) scale(1,1)"><path fill="none" stroke="#000000" d="M 75 317 L 253 303" stroke-miterlimit="10"/></g><g transform="translate(-6,-14) scale(1,1)"><path fill="none" stroke="#000000" d="M 243.1986799810049 307.993408243399 L 253 303 L 242.53854731984882 299.6002929801293" stroke-miterlimit="10"/></g><g transform="translate(-6,-14) scale(1,1)"><path fill="none" stroke="#000000" d="M 75 694 L 238 587" stroke-miterlimit="10"/></g><g transform="translate(-6,-14) scale(1,1)"><path fill="none" stroke="#000000" d="M 231.8143147070268 596.0960044775877 L 238 587 L 227.19421353524731 589.0579064308582" stroke-miterlimit="10"/></g><g transform="translate(-6,-14) scale(1,1)"><path fill="none" stroke="#000000" d="M 75 312 L 221 271" stroke-miterlimit="10"/></g><g transform="translate(-6,-14) scale(1,1)"><path fill="none" stroke="#000000" d="M 212.35390110445783 277.8003657172614 L 221 271 L 210.07770012692853 269.6948695533767" stroke-miterlimit="10"/></g><g transform="translate(-6,-14) scale(1,1)"><path fill="none" stroke="#000000" d="M 75 701 L 202 651" stroke-miterlimit="10"/></g><g transform="translate(-6,-14) scale(1,1)"><path fill="none" stroke="#000000" d="M 194.0858751721753 658.6398055086245 L 202 651 L 191.00171038499363 650.8060269491831" stroke-miterlimit="10"/></g><g transform="translate(-6,-14) scale(1,1)"><path fill="none" stroke="#000000" d="M 75 707 L 199 689" stroke-miterlimit="10"/></g><g transform="translate(-6,-14) scale(1,1)"><path fill="none" stroke="#000000" d="M 189.5474560454082 694.6257810823485 L 199 689 L 188.33801411744463 686.2940700230439" stroke-miterlimit="10"/></g><g transform="translate(-6,-14) scale(1,1)"><path fill="none" stroke="#000000" d="M 75 715 L 215 737" stroke-miterlimit="10"/></g><g transform="translate(-6,-14) scale(1,1)"><path fill="none" stroke="#000000" d="M 204.30704955663447 739.5808546676883 L 215 737 L 205.61400239382516 731.2638820673839" stroke-miterlimit="10"/></g><g transform="translate(-6,-14) scale(1,1)"><path fill="none" stroke="#000000" d="M 75 739 L 161 831" stroke-miterlimit="10"/></g><g transform="translate(-6,-14) scale(1,1)"><path fill="none" stroke="#000000" d="M 150.98490705937965 826.4505040509155 L 161 831 L 157.13523930405225 820.7012804308954" stroke-miterlimit="10"/></g><g transform="translate(-6,-14) scale(1,1)"><path fill="none" stroke="#000000" d="M 75 721 L 209 775" stroke-miterlimit="10"/></g><g transform="translate(-6,-14) scale(1,1)"><path fill="none" stroke="#000000" d="M 198.00050920364393 775.1058405445852 L 209 775 L 201.14734490149687 767.2970260350984" stroke-miterlimit="10"/></g><g transform="translate(-6,-14) scale(1,1)"><path fill="none" stroke="#000000" d="M 75 322 L 277 346" stroke-miterlimit="10"/></g><g transform="translate(-6,-14) scale(1,1)"><path fill="none" stroke="#000000" d="M 266.41165644498676 348.981103950051 L 277 346 L 267.4049516522142 340.62086928922037" stroke-miterlimit="10"/></g><g transform="translate(-6,-14) scale(1,1)"><path fill="none" stroke="#000000" d="M 75 679 L 324 371" stroke-miterlimit="10"/></g><g transform="translate(-6,-14) scale(1,1)"><path fill="none" stroke="#000000" d="M 320.88438932573314 381.5495483375543 L 324 371 L 314.3372733967488 376.25658773262865" stroke-miterlimit="10"/></g><g transform="translate(-6,-14) scale(1,1)"><path fill="none" stroke="#000000" d="M 402 347 L 533 334" stroke-miterlimit="10" stroke-dasharray="3"/></g><g transform="translate(-6,-14) scale(1,1)"><path fill="none" stroke="#000000" d="M 523.3026956586015 339.19252236492946 L 533 334 L 522.4713025652629 330.8146381166718" stroke-miterlimit="10"/></g><g transform="translate(-6,-14) scale(1,1)"><g><path fill="none" stroke="none"/><text fill="#000000" stroke="none" font-family="Arial" font-size="13px" font-style="normal" font-weight="normal" text-decoration="none" x="437.5" y="315">«extend»</text></g></g><g transform="translate(-6,-14) scale(1,1)"><path fill="none" stroke="#000000" d="M 402 359 L 517 371" stroke-miterlimit="10" stroke-dasharray="3"/></g><g transform="translate(-6,-14) scale(1,1)"><path fill="none" stroke="#000000" d="M 506.45532338145574 374.13205922841917 L 517 371 L 507.329087338115 365.75848797710125" stroke-miterlimit="10"/></g><g transform="translate(-6,-14) scale(1,1)"><g><path fill="none" stroke="none"/><text fill="#000000" stroke="none" font-family="Arial" font-size="13px" font-style="normal" font-weight="normal" text-decoration="none" x="435.5" y="340">«extend»</text></g></g><g transform="translate(-6,-14) scale(1,1)"><path fill="none" stroke="#000000" d="M 532 520 L 530 591" stroke-miterlimit="10"/></g><g transform="translate(-6,-14) scale(1,1)"><path fill="none" stroke="#000000" d="M 526.0783103839789 580.7228238043909 L 530 591 L 534.4940076581668 580.9598856994386" stroke-miterlimit="10"/></g><g transform="translate(-6,-14) scale(1,1)"><path fill="none" stroke="#000000" d="M 75 326 L 325 395" stroke-miterlimit="10"/></g><g transform="translate(-6,-14) scale(1,1)"><path fill="none" stroke="#000000" d="M 314.08364998230957 396.35399493768256 L 325 395 L 316.3235558745576 388.2383938788128" stroke-miterlimit="10"/></g><g transform="translate(-6,-14) scale(1,1)"><path fill="none" stroke="#000000" d="M 428 401 L 517 387" stroke-miterlimit="10" stroke-dasharray="3"/></g><g transform="translate(-6,-14) scale(1,1)"><path fill="none" stroke="#000000" d="M 507.6149010236781 392.7375880999459 L 517 387 L 506.3066454186088 384.42082032486286" stroke-miterlimit="10"/></g><g transform="translate(-6,-14) scale(1,1)"><g><path fill="none" stroke="none"/><text fill="#000000" stroke="none" font-family="Arial" font-size="13px" font-style="normal" font-weight="normal" text-decoration="none" x="439.5" y="369">«include»</text></g></g><g transform="translate(-6,-14) scale(1,1)"><path fill="none" stroke="#000000" d="M 75 331 L 322 447" stroke-miterlimit="10"/></g><g transform="translate(-6,-14) scale(1,1)"><path fill="none" stroke="#000000" d="M 311.01182044725164 446.4901861942205 L 322 447 L 314.5906765245655 438.8696909261471" stroke-miterlimit="10"/></g><g transform="translate(-6,-14) scale(1,1)"><path fill="none" stroke="#000000" d="M 412 469 L 495 476" stroke-miterlimit="10"/></g><g transform="translate(-6,-14) scale(1,1)"><path fill="none" stroke="#000000" d="M 484.5195122752694 479.3405653790595 L 495 476 L 485.2270396271706 470.9513124922306" stroke-miterlimit="10"/></g><g transform="translate(-6,-14) scale(1,1)"><path fill="none" stroke="#000000" d="M 160 483 L 100 543" stroke-miterlimit="10" stroke-dasharray="3"/></g><g transform="translate(-6,-14) scale(1,1)"><path fill="none" stroke="#000000" d="M 104.20951775601598 532.8373251423759 L 100 543 L 110.16267485762415 538.790482243984" stroke-miterlimit="10"/></g><g transform="translate(-6,-14) scale(1,1)"><g><path fill="none" stroke="none"/><text fill="#000000" stroke="none" font-family="Arial" font-size="13px" font-style="normal" font-weight="normal" text-decoration="none" x="124.5" y="539">«extend»</text></g></g><g transform="translate(-6,-14) scale(1,1)"><path fill="none" stroke="#000000" d="M 75 300 L 281 155" stroke-miterlimit="10"/></g><g transform="translate(-6,-14) scale(1,1)"><path fill="none" stroke="#000000" d="M 275.112566142812 164.29183095935545 L 281 155 L 270.26663891479575 157.40727227679443" stroke-miterlimit="10"/></g><g transform="translate(-6,-14) scale(1,1)"><path fill="none" stroke="#000000" d="M 75 307 L 426 147" stroke-miterlimit="10"/></g><g transform="translate(-6,-14) scale(1,1)"><path fill="none" stroke="#000000" d="M 418.49877877479037 155.0456000478811 L 426 147 L 415.0067372519023 147.38493395704535" stroke-miterlimit="10"/></g><g transform="translate(-6,-14) scale(1,1)"><path fill="none" stroke="#000000" d="M 75 463 L 127 464" stroke-miterlimit="10"/></g><g transform="translate(-6,-14) scale(1,1)"><path fill="none" stroke="#000000" d="M 116.75826651444115 468.0133396580382 L 127 464 L 116.92014111385227 459.59586048865975" stroke-miterlimit="10"/></g><g transform="translate(-6,-14) scale(1,1)"><path fill="none" stroke="#000000" d="M 49 423 L 49 360" stroke-miterlimit="10"/></g><g transform="translate(-6,-14) scale(1,1)"><path fill="#FFFFFF" stroke="none" d="M 57.419035512031975 380.3253497152483 L 49 360 L 40.580964487968025 380.3253497152483"/></g><g transform="translate(-6,-14) scale(1,1)"><path fill="none" stroke="#000000" d="M 57.419035512031975 380.3253497152483 L 49 360 L 40.580964487968025 380.3253497152483 L 57.419035512031975 380.3253497152483" stroke-miterlimit="10"/></g><g transform="translate(-6,-14) scale(1,1)"><path fill="none" stroke="#000000" d="M 48 160 L 49 279" stroke-miterlimit="10"/></g><g transform="translate(-6,-14) scale(1,1)"><path fill="#FFFFFF" stroke="none" d="M 40.41046650582093 258.74611359880834 L 49 279 L 57.24794303870159 258.6046221993724"/></g><g transform="translate(-6,-14) scale(1,1)"><path fill="none" stroke="#000000" d="M 40.41046650582093 258.74611359880834 L 49 279 L 57.24794303870159 258.6046221993724 L 40.41046650582093 258.74611359880834" stroke-miterlimit="10"/></g></g></svg>